# 3ds Max Wavefront OBJ Exporter v0.97b - (c)2007 guruware
# File Created: 28.02.2019 14:18:31

#
# object floor
#

v  0.5000 0.0000 -0.5000
v  -0.5000 0.0000 0.5000
v  0.5000 0.0000 0.5000
v  -0.5000 0.0000 -0.5000
# 4 vertices

vn 0.0000 1.0000 -0.0000
vn 0.0000 1.0000 -0.0000
vn 0.0000 1.0000 -0.0000
vn 0.0000 1.0000 -0.0000
# 4 vertex normals

vt 0.0000 1.0000 0.0000
vt 1.0000 0.0000 0.0000
vt 0.0000 0.0000 0.0000
vt 1.0000 1.0000 0.0000
# 4 texture coords

o floor
g floor
s 2
f 2/2/1 3/3/2 1/1/3 4/4/4 
# 1 polygons

