# 3ds Max Wavefront OBJ Exporter v0.97b - (c)2007 guruware
# File Created: 01.03.2019 17:14:16

#
# object pyramid
#

v  0.0000 1.0000 0.0000
v  -0.5000 0.0000 0.2887
v  0.5000 0.0000 0.2887
v  0.0000 0.0000 -0.5774
# 4 vertices

vn 0.0000 0.2774 0.9608
vn 0.0000 0.2774 0.9608
vn 0.0000 0.2774 0.9608
vn 0.8321 0.2774 -0.4804
vn 0.8321 0.2774 -0.4804
vn 0.8321 0.2774 -0.4804
vn -0.8321 0.2774 -0.4804
vn -0.8321 0.2774 -0.4804
vn -0.8321 0.2774 -0.4804
vn 0.0000 -1.0000 -0.0000
vn 0.0000 -1.0000 -0.0000
vn 0.0000 -1.0000 -0.0000
# 12 vertex normals

vt 0.1667 1.0000 0.0000
vt 0.8333 1.0000 0.0000
vt 0.0000 0.0000 0.0000
vt 0.3333 0.0000 0.0000
vt 0.6667 0.0000 0.0000
vt 1.0000 0.0000 0.0000
vt 1.0000 1.0000 0.0000
vt 0.0000 1.0000 0.0000
vt 0.5000 0.0000 0.0000
# 9 texture coords

o pyramid
g pyramid
s 2
f 1/1/1 2/3/2 3/4/3 
s 4
f 1/1/4 3/4/5 4/5/6 
s 8
f 4/5/7 2/6/8 1/2/9 
s 1
f 2/7/10 4/9/11 3/8/12 
# 0 polygons - 4 triangles

